<svg width="410" height="181" viewBox="0 0 410 181" fill="none" xmlns="http://www.w3.org/2000/svg">
<path d="M1.3902 132.973L0.515695 130.822C-0.156948 126.828 1.03741 122.383 4.09877 117.488C7.25286 112.568 11.523 107.548 16.9093 102.427C22.2955 97.3068 31.54 91.7487 44.6427 85.7532C52.1089 82.4606 58.4384 80.1186 63.6312 78.7272C68.9168 77.3109 73.6775 76.5322 77.9133 76.3911C82.1242 76.1573 85.8758 76.9907 89.1679 78.8914C92.46 80.7921 94.5906 83.5507 95.5596 87.1671C96.5037 90.6908 95.8682 94.439 93.6529 98.4117C91.5304 102.36 88.4209 105.777 84.3244 108.663C76.3848 114.269 68.431 118.339 60.463 120.871C65.0963 122.214 68.9597 123.464 72.053 124.623C75.1215 125.689 78.537 127.309 82.2994 129.481C86.0618 131.653 88.646 133.694 90.052 135.603C91.4581 137.512 92.3847 139.301 92.832 140.97C94.2979 146.441 93.6153 152.24 90.7843 158.365C88.9217 162.541 85.7601 166.321 81.2993 169.702C76.9313 173.059 71.9655 175.483 66.4017 176.974C54.5324 180.154 46.9233 177.721 43.5744 169.673C43.3392 169.537 43.172 169.284 43.0726 168.913C41.0645 175.514 38.9014 179.125 36.5832 179.746C35.9341 179.92 34.818 180.02 33.2349 180.047C31.7695 180.141 30.9407 180.015 30.7485 179.669C30.6492 179.298 30.438 178.51 30.115 177.305C29.792 176.099 29.9026 172.989 30.447 167.973C30.9665 162.864 31.7427 157.786 32.7756 152.739C34.8976 143.226 37.0478 134.003 39.2263 125.071C39.5209 123.203 39.5563 121.852 39.3327 121.017C39.1091 120.183 38.8888 119.546 38.6718 119.107C38.3471 116.411 39.6656 112.43 42.6276 107.164C45.6575 101.781 48.8415 98.6416 52.1798 97.7471C53.2925 97.449 54.888 97.4687 56.9662 97.8063C59.0444 98.144 60.4677 99.0049 61.2362 100.389C61.5028 101.013 61.6146 101.431 61.5716 101.641C61.5964 101.734 61.3522 101.75 60.8389 101.688C60.3255 101.627 60.0225 101.609 59.9298 101.634C56.9624 102.429 53.9887 105.611 51.0085 111.18C48.0963 116.632 45.5964 123.066 43.5089 130.483C39.1055 145.577 36.3064 157.756 35.1116 167.021C34.8667 169.075 34.8809 170.611 35.1542 171.631C35.5269 173.022 36.316 173.556 37.5215 173.233C38.727 172.91 40.0143 171.223 41.3835 168.173C42.7278 165.03 43.8297 163.393 44.6891 163.262C45.5236 163.039 46.2349 163.097 46.8227 163.436C47.5033 163.751 48.0109 164.161 48.3455 164.668C48.6551 165.082 48.9806 165.74 49.3218 166.642C49.663 167.545 49.9172 168.123 50.0845 168.376C53.3322 174.562 58.8971 176.599 66.7791 174.487C66.9645 174.438 67.15 174.388 67.3354 174.338C73.7337 172.624 78.8072 169.674 82.5558 165.49C86.6687 160.81 88.0667 156.012 86.7498 151.098C85.4081 146.09 81.6861 141.472 75.5837 137.244C73.6528 135.972 70.9146 134.47 67.3691 132.736C59.8328 129.09 55.7731 126.551 55.1901 125.117C54.6071 123.683 54.8868 122.316 56.0293 121.016C57.2396 119.598 58.4475 118.728 59.653 118.405C64.1967 117.187 69.9747 113.9 76.9871 108.542C87.311 100.707 92.12 93.8035 91.4141 87.8307C91.3147 87.4597 91.2401 87.1816 91.1904 86.9961C90.7432 85.327 89.579 83.9494 87.6978 82.8632C84.4735 80.845 78.8277 80.9167 70.7603 83.0783C59.7256 86.0351 47.4168 91.47 33.8341 99.3831C25.5781 104.179 18.6618 109.71 13.0853 115.975C6.98383 122.877 4.67851 129.11 6.16931 134.674C6.49231 135.879 7.18623 136.985 8.25107 137.992C9.29106 138.906 10.3492 139.517 11.4256 139.825C12.5699 140.015 14.0171 140.224 15.7675 140.45C17.4929 140.584 18.7299 140.75 19.4784 140.947C20.2948 141.026 20.626 141.335 20.472 141.873C20.4108 142.387 19.799 142.7 18.6365 142.812C15.5268 143.447 12.1313 143.015 8.45008 141.517C4.74402 139.926 2.46859 137.554 1.62381 134.401C1.49957 133.937 1.4217 133.461 1.3902 132.973ZM168.388 117.893C167.668 120.769 166.022 124.639 163.449 129.503C160.876 134.366 158.438 138.25 156.135 141.153C153.146 144.836 149.473 147.261 145.115 148.429C144.28 148.652 143.055 148.533 141.441 148.071C139.944 147.677 138.765 146.801 137.904 145.441C137.042 144.082 136.426 142.707 136.053 141.316C134.761 136.494 134.408 131.47 134.996 126.244C134.767 126.504 134.003 128.845 132.704 133.268C131.472 137.574 129.635 141.843 127.191 146.076C124.84 150.283 121.995 152.835 118.657 153.729C117.08 154.152 115.16 154.219 112.897 153.931C108.74 153.256 106.066 150.692 104.873 146.241C103.407 140.77 103.759 134.663 105.927 127.92C108.164 121.06 109.742 117.307 110.663 116.663C111.955 115.919 113.203 115.386 114.409 115.063C115.707 114.715 117.08 114.646 118.527 114.854C119.949 114.97 119.987 115.854 118.641 117.507C113.808 125.063 111.004 132.772 110.228 140.632C109.953 143.688 110.077 146.189 110.599 148.136C111.096 149.991 111.882 151.072 112.959 151.38C114.128 151.663 115.176 151.68 116.103 151.432C118.329 150.835 120.932 148.498 123.914 144.419C126.964 140.223 130.557 132.303 134.692 120.66C135.247 119.021 136.149 115.897 137.399 111.288C138.624 106.587 139.369 103.803 139.634 102.937C141.117 102.54 142.932 102.451 145.078 102.671C147.292 102.773 148.224 103.468 147.873 104.755C145.41 113.366 143.723 119.681 142.812 123.702C141.995 127.698 141.895 132.147 142.513 137.05C142.644 137.91 142.883 138.989 143.231 140.287C143.579 141.585 144.236 142.552 145.201 143.188C146.99 144.299 148.915 143.882 150.978 141.938C153.109 139.876 155.798 136.373 159.045 131.428C162.267 126.39 164.679 121.669 166.282 117.264C166.529 116.701 166.921 116.497 167.459 116.651C168.065 116.687 168.406 116.844 168.48 117.123C168.53 117.308 168.499 117.565 168.388 117.893ZM189.464 136.843C184.735 138.111 181.613 135.916 180.097 130.26C178.557 124.51 180.748 116.37 186.672 105.838C187.147 105.015 187.474 104.38 187.653 103.935L188.254 102.283C189.08 100.173 189.385 98.8991 189.168 98.4603L188.415 97.3203C187.746 96.3069 186.005 95.9287 183.191 96.1856C180.353 96.3498 178.1 96.6555 176.43 97.1027C171.24 111.116 168.22 119.13 167.369 121.147C166.518 123.164 165.823 124.096 165.285 123.942C164.747 123.788 164.428 123.525 164.329 123.155C164.229 122.784 164.359 122.153 164.716 121.262C168.084 113.8 170.644 106.107 172.397 98.1836C171.234 98.2963 170.3 98.149 169.595 97.7417C168.865 97.2417 168.545 96.2341 168.636 94.7189C168.702 93.111 169.571 90.791 171.243 87.7589C173.008 84.7019 174.66 82.5201 176.198 81.2135C177.736 79.9068 178.712 79.0987 179.126 78.789C179.54 78.4793 180.025 78.2499 180.582 78.1008C181.695 77.8026 181.771 79.5712 180.811 83.4063L177.697 93.4836C181.944 92.6437 185.552 91.8262 188.519 91.0311L193.35 89.5876C194.926 89.1652 196.148 89.0864 197.014 89.3513C197.855 89.5234 198.227 90.1692 198.129 91.2886C197.952 93.2244 196.963 96.0238 195.162 99.6868C191.337 107.669 189.015 115.695 188.196 123.766C188.019 125.702 188.105 127.319 188.453 128.617C189.173 131.306 190.507 132.39 192.454 131.868C193.103 131.694 194.172 130.861 195.661 129.369C197.242 127.852 199.656 124.621 202.903 119.676C206.125 114.639 208.537 109.918 210.14 105.513C210.386 104.95 210.779 104.745 211.317 104.899C211.923 104.935 212.263 105.093 212.338 105.371C212.388 105.556 212.357 105.813 212.246 106.141C211.526 109.017 209.88 112.887 207.307 117.751C204.734 122.615 202.055 126.712 199.27 130.042C196.627 133.533 193.359 135.8 189.464 136.843ZM221.411 126.196C219.927 126.594 218.18 126.565 216.17 126.11C214.277 125.722 212.517 124.902 210.889 123.649C209.236 122.303 208.162 120.702 207.665 118.848C207.168 116.993 207.113 115.119 207.5 113.227C208.311 108.835 210.272 104.285 213.383 99.5749C216.562 94.7476 220.029 90.4395 223.785 86.6504C227.54 82.8614 230.629 80.2944 233.051 78.9496C235.474 77.6048 237.89 76.6094 240.301 75.9634C242.805 75.2926 245.112 75.3702 247.222 76.1963C249.306 76.9297 250.535 77.9919 250.908 79.3828C251.032 79.8464 251.06 80.137 250.992 80.2546C250.924 80.3722 250.68 80.3879 250.26 80.3019C248.675 78.8382 246.121 78.5784 242.597 79.5226C239.166 80.4419 235.535 82.657 231.706 86.1679C227.944 89.5612 224.575 93.4951 221.6 97.9696C219.174 101.899 217.231 106.147 215.771 110.712C214.379 115.16 213.919 118.265 214.391 120.027C215.31 123.458 216.744 124.913 218.691 124.391C220.638 123.869 223.183 121.497 226.326 117.276C231.419 109.948 234.823 104.663 236.538 101.421C242.609 89.9548 245.969 84.1348 246.619 83.9609C247.731 83.6628 249.163 83.627 250.913 83.8537C252.664 84.0805 253.385 84.732 253.077 85.8084C250.137 93.752 249.156 101.22 250.135 108.213C250.266 109.072 250.506 110.151 250.853 111.45C251.201 112.748 251.858 113.715 252.823 114.35C254.612 115.461 256.538 115.045 258.601 113.101C260.664 111.156 263.306 107.666 266.528 102.628C269.843 97.5655 272.302 92.8319 273.904 88.4271C274.151 87.864 274.543 87.6595 275.082 87.8134C275.595 87.8747 275.876 87.998 275.926 88.1835C276.299 89.5744 274.893 93.2308 271.709 99.1526C268.594 104.957 266.1 109.004 264.229 111.294C260.74 115.708 257.142 118.411 253.432 119.405C249.909 120.349 247.072 119.221 244.922 116.02C244.346 114.982 243.872 113.768 243.499 112.377C242.381 108.204 242.081 103.563 242.601 98.4546C242.28 98.7395 241.061 101.054 238.945 105.397C236.829 109.741 234.166 114.082 230.956 118.421C227.838 122.735 224.656 125.327 221.411 126.196ZM284.313 108.895C281.422 111.458 279.513 112.864 278.585 113.113C277.658 113.361 277.157 113.346 277.083 113.068C277.008 112.79 276.967 112.453 276.961 112.057C277.072 111.729 277.261 109.84 277.529 106.389C277.89 102.913 278.305 98.5282 278.775 93.2342C279.245 87.9402 279.694 83.4966 280.122 79.9032C278.611 82.7929 276.964 86.6629 275.183 91.5132C274.893 92.2866 274.294 92.6459 273.385 92.5914C272.568 92.512 272.586 91.4638 273.437 89.4468C275.503 84.9177 277.922 78.5547 280.695 70.3577C279.106 69.9885 278.224 69.4794 278.05 68.8303C277.851 68.0885 277.795 67.5073 277.881 67.0866C278.046 65.8497 278.819 65.3942 280.198 65.7203C280.804 65.7567 281.2 65.75 281.386 65.7004C282.583 53.8505 285.112 42.8865 288.971 32.8083C291.042 27.1847 293.6 22.822 296.645 19.7202C299.665 16.5257 302.752 14.506 305.904 13.6612C308.13 13.0649 310.412 13.0498 312.75 13.6159C315.063 14.0893 316.543 15.5315 317.189 17.9425C318.431 22.5789 316.245 30.3701 310.631 41.3162C307.583 47.0029 303.926 52.4553 299.659 57.6734C295.392 62.8915 291.454 66.9282 287.846 69.7833C286.367 78.727 285.404 87.9298 284.958 97.3917L290.831 83.1462C290.514 82.3365 290.232 81.468 289.983 80.5407C289.238 77.7588 289.381 75.8819 290.413 74.9098C290.987 74.4576 291.554 74.9022 292.112 76.2434L293.19 78.0417C298.094 67.7829 301.923 61.4893 304.679 59.1608C305.964 58.0214 307.209 57.2902 308.414 56.9672C309.62 56.6442 310.773 56.683 311.874 57.0837C312.975 57.4843 313.625 58.0556 313.824 58.7974C314.172 60.0956 313.416 61.5404 311.557 63.1319C302.674 70.7797 297.069 76.7539 294.743 81.0545C299.055 88.2474 302.874 93.7836 306.2 97.6631C309.525 101.543 314.205 105.655 320.24 110.002C326.367 114.323 331.331 115.974 335.133 114.956C338.286 114.111 339.211 112.372 337.91 109.739C336.868 107.335 335.496 105.367 333.793 103.836C332.209 102.372 331.88 101.516 332.807 101.267C333.667 101.136 334.659 101.318 335.785 101.811C336.516 102.311 337.463 103.25 338.627 104.628C339.816 106.098 340.56 107.389 340.858 108.502C341.461 111.123 340.756 113.499 338.742 115.629C336.729 117.758 334.609 119.121 332.384 119.718C328.026 120.885 323.176 119.849 317.836 116.609C312.52 113.462 307.651 109.201 303.229 103.826C298.808 98.4511 295.183 92.7137 292.356 86.6136C291.308 89.379 290.199 92.6578 289.029 96.45C286.57 103.966 284.998 108.115 284.313 108.895ZM311.385 27.9952C312.771 23.1515 313.24 19.8951 312.792 18.226C312.345 16.5569 311.426 15.9087 310.035 16.2814C308.644 16.6541 307.106 17.9607 305.421 20.2013C300.703 26.3352 297.087 32.8697 294.573 39.8049C292.033 46.6474 289.925 54.9147 288.248 64.6069C295.804 58.3088 302.024 50.1819 306.91 40.2261C308.508 36.9158 309.999 32.8388 311.385 27.9952ZM332.126 96.083C329.235 98.6466 327.326 100.053 326.399 100.301C325.471 100.55 324.97 100.535 324.896 100.257C324.821 99.9783 324.781 99.6414 324.774 99.2456C324.885 98.9177 325.074 97.0283 325.342 93.5774C325.703 90.1016 326.118 85.7167 326.588 80.4227C327.058 75.1287 327.507 70.685 327.936 67.0917C326.424 69.9814 324.778 73.8514 322.996 78.7017C322.707 79.475 322.107 79.8344 321.198 79.7798C320.382 79.7004 320.399 78.6522 321.25 76.6353C323.316 72.1062 325.736 65.7431 328.509 57.5461C326.919 57.177 326.037 56.6679 325.863 56.0188C325.665 55.2769 325.608 54.6957 325.694 54.2751C325.86 53.0381 326.632 52.5827 328.012 52.9088C328.618 52.9452 329.013 52.9385 329.199 52.8888C330.397 41.039 332.925 30.075 336.784 19.9968C338.855 14.3731 341.413 10.0104 344.458 6.90864C347.478 3.71413 350.565 1.69449 353.718 0.849702C355.943 0.253382 358.225 0.238281 360.563 0.804399C362.877 1.27779 364.356 2.71997 365.002 5.13091C366.245 9.76736 364.059 17.5586 358.444 28.5047C355.396 34.1913 351.739 39.6437 347.472 44.8619C343.205 50.08 339.268 54.1166 335.66 56.9717C334.18 65.9154 333.217 75.1182 332.771 84.5802L338.644 70.3347C338.328 69.525 338.045 68.6565 337.797 67.7292C337.051 64.9473 337.195 63.0703 338.226 62.0982C338.801 61.6461 339.367 62.0907 339.925 63.4319L341.003 65.2301C345.907 54.9713 349.737 48.6777 352.492 46.3493C353.777 45.2099 355.022 44.4787 356.228 44.1557C357.433 43.8327 358.586 43.8715 359.688 44.2721C360.789 44.6728 361.439 45.244 361.638 45.9858C361.985 47.284 361.23 48.7289 359.37 50.3204C350.487 57.9681 344.882 63.9423 342.556 68.2429C346.869 75.4358 350.688 80.972 354.013 84.8516C357.338 88.7311 362.018 92.8439 368.053 97.1902C374.18 101.512 379.145 103.163 382.947 102.144C386.099 101.299 387.025 99.5607 385.723 96.9279C384.681 94.5236 383.309 92.5556 381.607 91.0241C380.022 89.5604 379.693 88.7043 380.62 88.4558C381.48 88.325 382.473 88.5062 383.599 88.9996C384.329 89.4996 385.276 90.4384 386.44 91.816C387.63 93.2864 388.373 94.5779 388.671 95.6907C389.274 98.3119 388.569 100.687 386.556 102.817C384.542 104.947 382.423 106.31 380.197 106.906C375.839 108.074 370.99 107.038 365.649 103.797C360.333 100.65 355.465 96.389 351.043 91.0143C346.621 85.6396 342.997 79.9022 340.169 73.802C339.121 76.5675 338.012 79.8463 336.842 83.6384C334.384 91.1548 332.812 95.303 332.126 96.083ZM359.198 15.1836C360.584 10.34 361.053 7.08357 360.606 5.41445C360.159 3.74533 359.239 3.09712 357.849 3.46982C356.458 3.84252 354.919 5.14917 353.234 7.38976C348.517 13.5237 344.901 20.0582 342.386 26.9934C339.846 33.8358 337.738 42.1031 336.062 51.7953C343.617 45.4972 349.838 37.3703 354.723 27.4146C356.321 24.1043 357.813 20.0273 359.198 15.1836ZM409.166 43.239C410.259 47.319 409.708 51.9391 407.513 57.0991C405.293 62.1663 402.333 66.8851 398.634 71.2554C395.182 75.0626 391.476 78.292 387.515 80.9434C383.647 83.57 380.6 85.1815 378.375 85.7778C376.242 86.3493 374.418 86.5895 372.903 86.4986C372.13 91.7744 371.426 100.461 370.791 112.557C370.743 113.862 370.956 115.395 371.428 117.157C371.832 119.037 371.934 121.643 371.734 124.976C371.466 128.427 371.07 131.217 370.547 133.345C370.382 134.582 369.273 135.823 367.222 137.068C365.195 138.406 363.718 139.2 362.791 139.448C361.863 139.697 361.276 139.357 361.027 138.43C360.928 138.059 360.93 137.512 361.034 136.788C362.964 126.929 364.901 112.644 366.845 93.9358C368.814 75.3199 369.875 64.9977 370.027 62.9692C370.179 60.9407 370.386 58.0031 370.647 54.1564C371.097 47.6751 371.017 42.9259 370.408 39.9089C370.109 38.7962 371.444 37.8423 374.411 37.0472C377.379 36.2521 379.148 36.9209 379.72 39.0537C380.142 40.6301 379.811 43.104 378.727 46.4756C377.71 49.7295 376.571 56.0477 375.308 65.4302C378.5 55.829 381.429 49.3293 384.097 45.9311C387.579 41.1221 391.406 38.1585 395.579 37.0404C397.248 36.5931 398.992 36.4241 400.81 36.5332C404.774 36.8624 407.327 38.4146 408.468 41.1898C408.759 41.9068 408.992 42.5898 409.166 43.239ZM401.829 43.1179C400.959 39.8724 399.272 38.585 396.769 39.2559C395.285 39.6534 393.11 41.1804 390.244 43.8367C387.378 46.493 384.748 50.0303 382.354 54.4485C379.96 58.8666 378.258 62.9006 377.248 66.5503C376.306 70.0824 375.494 73.7288 374.812 77.4895C374.105 81.1574 373.688 83.3068 373.558 83.9377C379.215 82.422 384.769 78.3 390.222 71.5716C395.674 64.8431 399.299 58.1571 401.097 51.5134C402.181 48.1419 402.425 45.3434 401.829 43.1179Z" fill="#363636"/>
</svg>
