<svg width="532" height="73" viewBox="0 0 532 73" fill="none" xmlns="http://www.w3.org/2000/svg">
<path d="M42.8086 31.7344C42.8086 29.8594 42.1641 28.3828 40.875 27.3047L41.8945 25.9336C43.0898 26.918 43.9102 28.3242 44.3555 30.1523C44.4727 30.6211 44.5312 31.1016 44.5312 31.5938C44.5312 32.7422 44.1562 33.6797 43.4062 34.4062C42.6562 35.1094 41.8477 35.4609 40.9805 35.4609C40.1367 35.4609 39.4805 35.3086 39.0117 35.0039C38.543 34.6992 37.9219 34.2422 37.1484 33.6328C36.375 33.0234 35.5898 32.7188 34.793 32.7188C33.3398 32.7188 32.1211 33.7031 31.1367 35.6719C30.457 37.0312 29.7891 39.2109 29.1328 42.2109L30.1875 43.3008C32.4375 45.6211 33.9023 47.3555 34.582 48.5039C35.918 50.6602 36.5859 52.6875 36.5859 54.5859C36.5859 58.5703 35.25 61.8633 32.5781 64.4648C29.9297 67.0898 26.4375 68.4023 22.1016 68.4023C17.7891 68.4023 14.2148 67.1953 11.3789 64.7812C8.56641 62.3906 7.16016 59.3555 7.16016 55.6758C7.16016 53.707 7.45312 52.1719 8.03906 51.0703C8.625 49.9453 9.15234 49.0781 9.62109 48.4688L11.0625 46.7109C13.4062 43.9922 14.5781 41.4609 14.5781 39.1172C14.5781 36.7734 13.9453 35.0508 12.6797 33.9492C11.4375 32.8477 9.92578 32.2969 8.14453 32.2969H8.10938C6.28125 32.2969 4.92188 32.6602 4.03125 33.3867C3.14062 34.1133 2.69531 34.9688 2.69531 35.9531C2.69531 36.9375 3 37.7344 3.60938 38.3438C4.24219 38.9297 4.99219 39.2227 5.85938 39.2227V40.9453C3.72656 40.9453 2.22656 39.9727 1.35938 38.0273C1.10156 37.4414 0.972656 36.8086 0.972656 36.1289C0.972656 34.5352 1.55859 33.2227 2.73047 32.1914C3.90234 31.1602 5.66016 30.6445 8.00391 30.6445H8.07422C11.8008 30.6445 14.3203 32.1328 15.6328 35.1094C16.125 36.2109 16.3711 37.4062 16.3711 38.6953C16.3945 39.6562 16.2656 40.6641 15.9844 41.7188C15.5156 43.4766 14.5312 45.2695 13.0312 47.0977L11.1328 49.3828C9.60938 51.3281 8.84766 53.2852 8.84766 55.2539C8.84766 58.7461 10.0898 61.5117 12.5742 63.5508C15.0586 65.6367 18.2227 66.6797 22.0664 66.6797C25.9336 66.6797 29.0391 65.5312 31.3828 63.2344C33.7266 60.9375 34.8984 58.043 34.8984 54.5508C34.8984 52.043 33.8203 49.5938 31.6641 47.2031L27.7266 42.9844C25.4297 40.4062 24.2812 37.6992 24.2812 34.8633C24.2812 29.8711 26.1797 25.7695 29.9766 22.5586C31.1016 21.5977 32.3203 20.6602 33.6328 19.7461C32.1562 19.3477 30.7148 18.6562 29.3086 17.6719C27.9023 16.6641 26.4727 15.5742 25.0195 14.4023H25.0547L22.1719 12.1875C18.75 9.63281 15.9258 8.35547 13.6992 8.35547C9.76172 8.35547 6.79688 9.39844 4.80469 11.4844C2.83594 13.5469 1.85156 16.0195 1.85156 18.9023C1.85156 22.8164 3.35156 25.3945 6.35156 26.6367C7.24219 27.0117 8.32031 27.1992 9.58594 27.1992C12.2812 27.1992 14.4844 26.5312 16.1953 25.1953C17.9297 23.8359 18.8086 22.0664 18.832 19.8867H20.5547C20.5547 22.6289 19.5234 24.8203 17.4609 26.4609C15.3984 28.1016 12.8438 28.9219 9.79688 28.9219C6.75 28.9219 4.38281 28.0195 2.69531 26.2148C1.00781 24.4102 0.164062 21.9023 0.164062 18.6914C0.164062 15.457 1.28906 12.6445 3.53906 10.2539C5.78906 7.83984 9.02344 6.63281 13.2422 6.63281C15.9375 6.63281 19.1953 8.01562 23.0156 10.7812L28.6406 14.9297C31.7812 17.2266 34.2188 18.375 35.9531 18.375C39.5625 18.375 42.0234 17.2734 43.3359 15.0703C43.8047 14.2734 44.0391 13.3828 44.0391 12.3984C44.0391 10.5703 43.5352 9.15234 42.5273 8.14453C41.5195 7.13672 40.3125 6.63281 38.9062 6.63281C37.5234 6.63281 36.3984 7.07813 35.5312 7.96875C34.6641 8.85937 34.2305 9.9375 34.2305 11.2031H32.5078C32.5078 9.46875 33.0938 7.99219 34.2656 6.77344C35.4609 5.53125 36.7617 4.91016 38.168 4.91016C40.6523 4.93359 42.5508 5.625 43.8633 6.98438C45.1523 8.34375 45.7969 9.86719 45.7969 11.5547C45.7969 14.4844 44.8242 16.6289 42.8789 17.9883C40.9805 19.3477 38.7188 20.0508 36.0938 20.0977C32.625 22.4648 30.3398 24.3281 29.2383 25.6875C27.082 28.3359 26.0039 31.3945 26.0039 34.8633C26.0039 36.7148 26.6016 38.5664 27.7969 40.418C28.4531 37.4883 29.1562 35.4375 29.9062 34.2656C31.2891 32.0859 32.9297 30.9961 34.8281 30.9961C36.0938 30.9961 37.2773 31.4531 38.3789 32.3672C39.4805 33.2812 40.2656 33.7383 40.7344 33.7383C41.2266 33.7383 41.6953 33.5391 42.1406 33.1406C42.5859 32.7188 42.8086 32.25 42.8086 31.7344ZM62.5664 16.8984C64.957 19.6172 66.7148 22.4648 67.8398 25.4414L66.3984 26.5664C65.5547 24.0117 64.2305 21.6328 62.4258 19.4297L55.1484 26.9883V60H53.3906V26.3906C53.3906 23.4609 52.2891 21.2344 50.0859 19.7109L51.0703 18.2344C53.1797 19.5938 54.4922 21.7266 55.0078 24.6328L62.5664 16.8984ZM84.082 16.793C88.0664 19.4414 90.0586 22.5586 90.0586 26.1445V45.0938C90.0586 47.4609 89.4609 49.3242 88.2656 50.6836C87.75 51.2695 87.0703 51.8789 86.2266 52.5117L74.7305 61.0898L72.832 60.1406V30.8203C72.832 27.1406 74.1094 24.3398 76.6641 22.418L84.082 16.793ZM77.6836 23.8594C75.6211 25.4062 74.5898 27.7266 74.5898 30.8203V59.0508L85.2422 51.2812C86.4609 50.3906 87.2812 49.4531 87.7031 48.4688C88.125 47.4609 88.3359 46.3359 88.3359 45.0938V26.1445C88.3359 23.3555 86.918 20.9531 84.082 18.9375L77.6836 23.8594ZM111.891 16.8984C116.203 21.6328 118.359 26.6484 118.359 31.9453C118.359 34.0078 118.172 37.1836 117.797 41.4727C117.422 45.7383 117.234 48.9727 117.234 51.1758C117.234 54.457 118.617 57.1992 121.383 59.4023L120.328 60.8086C117.703 58.793 116.156 56.4727 115.688 53.8477C115.547 53.0039 115.477 51.9492 115.477 50.6836C115.477 48.8555 115.664 45.8086 116.039 41.543C116.414 37.2773 116.602 34.2891 116.602 32.5781C116.602 27.75 114.949 23.332 111.645 19.3242L101.73 27.0586V60H99.9727V24.9141C99.9727 21.9844 98.8711 19.7578 96.668 18.2344L97.6523 16.7578C100.371 18.6094 101.73 21.3047 101.73 24.8438L111.891 16.8984ZM139.77 61.0898C134.332 59.543 131.613 55.9922 131.613 50.4375L131.578 22.8398H130.137C128.988 22.8398 127.594 23.4961 125.953 24.8086C125.531 25.1602 125.098 25.4883 124.652 25.793L123.668 24.3164C126.41 22.1602 128.566 21.082 130.137 21.082H131.684L134.988 9.51562L136.676 10.0078L133.512 21.082H143.145V22.8398H133.336V38.0625C133.336 41.8359 133.336 46.0195 133.336 50.6133C133.359 55.1836 135.645 58.1016 140.191 59.3672L139.77 61.0898ZM182.484 35.9531C181.547 37.2656 181.078 38.6016 181.078 39.9609C181.078 42.3516 181.746 44.1797 183.082 45.4453C184.441 46.7109 186.27 47.3438 188.566 47.3438C190.887 47.3438 192.727 46.5234 194.086 44.8828C195.445 43.2422 196.137 41.5195 196.16 39.7148C196.16 38.0039 195.891 36.6328 195.352 35.6016C194.812 34.5234 194.039 33.4922 193.031 32.5078C192 31.5234 190.547 30.4922 188.672 29.4141C185.18 27.4453 182.941 25.9688 181.957 24.9844C180.34 23.4141 179.531 21.7148 179.531 19.8867C179.531 18.0352 180 16.5 180.938 15.2812L181.711 14.2617C182.484 13.3242 182.93 12.5391 183.047 11.9062C183.188 11.2969 183.258 10.7344 183.258 10.2188C183.258 9.23438 182.859 8.39062 182.062 7.6875C181.242 7.03125 180.141 6.70312 178.758 6.70312C177.398 6.70312 175.992 7.23047 174.539 8.28516C173.086 9.33984 171.773 10.9453 170.602 13.1016C168.023 17.8828 166.734 24.4336 166.734 32.7539C166.734 41.0742 168.926 47.543 173.309 52.1602C177.176 56.2383 181.828 58.2773 187.266 58.2773C192.727 58.2773 197.414 56.5547 201.328 53.1094C204.375 50.4375 206.754 46.875 208.465 42.4219L210.082 43.0547C207.199 50.625 202.453 55.7695 195.844 58.4883C193.336 59.5195 190.816 60.0352 188.285 60.0352C185.777 60.0352 183.633 59.8008 181.852 59.332C180.07 58.8867 178.359 58.1719 176.719 57.1875C173.18 55.0781 170.332 51.9727 168.176 47.8711C166.043 43.7695 164.977 39.0469 164.977 33.7031C164.977 28.3359 165.387 23.918 166.207 20.4492C167.027 16.957 168.094 14.0625 169.406 11.7656C170.742 9.46875 172.242 7.75781 173.906 6.63281C175.57 5.50781 177.047 4.94531 178.336 4.94531C180.492 4.94531 182.145 5.44922 183.293 6.45703C184.441 7.46484 185.016 8.70703 185.016 10.1836V10.2188L188.672 5.68359C190.664 11.6367 193.641 14.6133 197.602 14.6133H197.707C199.957 14.6367 201.738 13.8281 203.051 12.1875C204.387 10.5469 205.055 8.42578 205.055 5.82422H206.812C206.812 10.6289 205.031 13.875 201.469 15.5625C200.344 16.1016 199.102 16.3711 197.742 16.3711C195.375 16.3711 193.371 15.6914 191.73 14.332C190.09 12.9492 188.848 11.2617 188.004 9.26953L183.469 14.8945C183.422 14.9883 183.363 15.0703 183.293 15.1406C183.223 15.2109 183.07 15.3984 182.836 15.7031C181.805 16.9688 181.289 18.1641 181.289 19.2891C181.289 20.4141 181.477 21.3281 181.852 22.0312C182.578 23.3438 183.82 24.5273 185.578 25.582L188.145 27.0586C191.004 28.6523 193.102 30.0586 194.438 31.2773C195.234 28.9102 195.996 27.2461 196.723 26.2852C198.152 24.4336 199.793 23.5078 201.645 23.5078C203.027 23.5078 204.188 23.918 205.125 24.7383C206.086 25.5586 206.824 25.9688 207.34 25.9688C208.723 25.9688 209.414 24.5156 209.414 21.6094H211.172C211.172 23.4844 210.996 24.7969 210.645 25.5469C209.965 27 208.863 27.7266 207.34 27.7266C206.473 27.7266 205.688 27.4453 204.984 26.8828C204.305 26.3203 203.742 25.9102 203.297 25.6523C202.852 25.3945 202.266 25.2656 201.539 25.2656C200.203 25.2656 199.078 25.957 198.164 27.3398C197.273 28.7227 196.488 30.5391 195.809 32.7891C197.215 34.6641 197.918 36.8555 197.918 39.3633C197.918 41.8711 197.074 44.1211 195.387 46.1133C193.699 48.1055 191.438 49.1016 188.602 49.1016C185.766 49.1016 183.504 48.3164 181.816 46.7461C180.152 45.1523 179.32 43.207 179.32 40.9102C179.32 38.6133 179.93 36.6211 181.148 34.9336L182.484 35.9531ZM231.211 16.8984C235.523 21.6328 237.68 26.6484 237.68 31.9453C237.68 34.0078 237.492 37.1836 237.117 41.4727C236.742 45.7383 236.555 48.9727 236.555 51.1758C236.555 54.457 237.938 57.1992 240.703 59.4023L239.648 60.8086C237.023 58.793 235.477 56.4727 235.008 53.8477C234.867 53.0039 234.797 51.9492 234.797 50.6836C234.797 48.8555 234.984 45.8086 235.359 41.543C235.734 37.2773 235.922 34.2891 235.922 32.5781C235.922 27.75 234.27 23.332 230.965 19.3242L221.051 27.0586V60H219.293V24.9141C219.293 21.9844 218.191 19.7578 215.988 18.2344L216.973 16.7578C219.691 18.6094 221.051 21.3047 221.051 24.8438L231.211 16.8984ZM247.699 60.4922V30.0469C247.699 28.5234 248.109 27.3281 248.93 26.4609L253.711 21.1523C249.586 17.707 247.148 14.4609 246.398 11.4141C246.117 10.3359 245.977 9.28125 245.977 8.25C245.977 6.46875 246.34 4.86328 247.066 3.43359C247.793 2.00391 248.59 0.984375 249.457 0.375L250.441 1.81641C249.27 2.56641 248.438 3.91406 247.945 5.85938C247.781 6.51563 247.699 7.33594 247.699 8.32031C247.699 10.4297 248.297 12.3984 249.492 14.2266C250.711 16.0547 252.82 18.2344 255.82 20.7656C258.844 23.2969 260.883 25.4062 261.938 27.0938C263.93 30.2344 264.926 33.4922 264.926 36.8672C264.926 40.2656 264.609 42.8438 263.977 44.6016C262.875 47.6953 261.152 50.332 258.809 52.5117L249.598 61.0898L247.699 60.4922ZM263.027 40.7695C263.145 39.4805 263.203 38.0859 263.203 36.5859C263.203 33.7969 262.441 31.1836 260.918 28.7461C259.395 26.2852 257.438 24.1172 255.047 22.2422L250.23 27.5859C249.715 28.1484 249.457 28.9688 249.457 30.0469V58.9102L257.648 51.3516C260.859 48.4453 262.652 44.918 263.027 40.7695ZM312.984 6.91406C311.766 6.72656 310.09 6.63281 307.957 6.63281C305.824 6.63281 303.562 6.99609 301.172 7.72266C298.781 8.44922 296.766 9.44531 295.125 10.7109C291.703 13.3125 289.992 16.5117 289.992 20.3086C289.992 22.7461 290.719 24.8555 292.172 26.6367C293.625 28.3945 295.664 29.2734 298.289 29.2734V31.0312C295.148 31.0312 292.688 29.9531 290.906 27.7969C289.125 25.6406 288.234 23.3203 288.234 20.8359C288.234 16.125 290.133 12.293 293.93 9.33984C297.75 6.36328 302.719 4.875 308.836 4.875C314.977 4.875 320.531 6.43359 325.5 9.55078C330.492 12.6445 334.418 16.6055 337.277 21.4336C340.16 26.2617 341.602 31.1484 341.602 36.0938C341.602 42.5391 339.785 48.0938 336.152 52.7578C333.832 55.7578 330.938 57.8672 327.469 59.0859C325.711 59.6953 324.012 60 322.371 60C319.816 60 317.414 59.25 315.164 57.75C313.57 56.7188 312.07 55.4531 310.664 53.9531C308.203 51.375 306.152 49.5469 304.512 48.4688C302.871 47.3906 301.312 46.8516 299.836 46.8516C297.211 46.8516 295.09 47.5078 293.473 48.8203C291.832 50.1562 291.012 51.9258 291.012 54.1289C291.035 55.3242 291.398 56.2969 292.102 57.0469C292.852 57.8438 293.625 58.2422 294.422 58.2422C295.734 58.2422 296.777 57.8789 297.551 57.1523C298.324 56.4023 298.711 55.5 298.711 54.4453H300.469C300.469 56.0156 299.918 57.3398 298.816 58.418C297.738 59.4727 296.426 60 294.879 60C293.309 60 291.973 59.4375 290.871 58.3125C289.793 57.1875 289.254 55.8398 289.254 54.2695C289.254 51.3633 290.25 49.1133 292.242 47.5195C294.234 45.9023 296.684 45.0938 299.59 45.0938C302.52 45.0938 305.461 46.4531 308.414 49.1719C309.281 49.9688 310.125 50.7891 310.945 51.6328L313.406 54.0938C316.219 56.8594 319.008 58.2422 321.773 58.2422C327.094 58.2188 331.43 56.0273 334.781 51.668C338.156 47.2852 339.844 42.0234 339.844 35.8828C339.844 29.7188 337.5 23.7891 332.812 18.0938C328.125 12.3984 322.242 8.78906 315.164 7.26562L302.051 19.7812C302.262 21.2344 303.527 23.1797 305.848 25.6172L307.711 27.6562C309.914 30.1172 311.027 32.6602 311.051 35.2852C311.051 37.8398 310.219 39.7734 308.555 41.0859C306.891 42.3984 305.109 43.0547 303.211 43.0547H303.176C301.277 43.0547 299.73 42.5273 298.535 41.4727C297.34 40.418 296.742 39.082 296.742 37.4648C296.742 35.9414 297.27 34.6289 298.324 33.5273C299.402 32.4258 300.727 31.875 302.297 31.875V33.6328C301.219 33.6328 300.316 34.0195 299.59 34.793C298.863 35.543 298.5 36.4453 298.5 37.5C298.5 38.5312 298.898 39.4219 299.695 40.1719C300.492 40.8984 301.418 41.2617 302.473 41.2617C304.418 41.2617 306.035 40.7578 307.324 39.75C308.637 38.7422 309.293 37.1836 309.293 35.0742C309.293 32.9648 308.285 30.8203 306.27 28.6406L302.965 25.0547C301.184 23.0625 300.293 21.0703 300.293 19.0781L312.984 6.91406ZM364.664 55.043L356.965 61.0547C354.41 60.3047 352.406 59.0508 350.953 57.293C349.523 55.5117 348.809 53.2266 348.809 50.4375V31.9453C348.809 29.4844 349.195 27.3867 349.969 25.6523C350.766 23.8945 352.113 22.3477 354.012 21.0117L360.129 16.7578L365.754 27.4102L350.566 38.8711V50.4375C350.566 54.7969 352.547 57.6797 356.508 59.0859L363.609 53.5664L364.664 55.043ZM350.566 36.6562L363.645 26.9883L359.566 19.2188L355.031 22.4531C352.055 24.5156 350.566 27.6797 350.566 31.9453V36.6562ZM385.16 16.793C388.793 18.832 390.609 22.3477 390.609 27.3398V41.4727C390.609 46.1836 389.133 49.7578 386.18 52.1953L375.281 61.1953L373.418 60V22.6641C373.441 21.4453 372.961 20.3438 371.977 19.3594C371.602 18.9844 371.156 18.5742 370.641 18.1289L371.836 16.793C373.664 18.4102 374.719 19.8281 375 21.0469C375.094 21.5156 375.152 22.0547 375.176 22.6641V58.9102L385.055 50.8594C387.586 48.7969 388.852 45.668 388.852 41.4727V27.3398C388.852 22.957 387.34 19.957 384.316 18.3398L385.16 16.793ZM414.867 55.043L407.168 61.0547C404.613 60.3047 402.609 59.0508 401.156 57.293C399.727 55.5117 399.012 53.2266 399.012 50.4375V31.9453C399.012 29.4844 399.398 27.3867 400.172 25.6523C400.969 23.8945 402.316 22.3477 404.215 21.0117L410.332 16.7578L415.957 27.4102L400.77 38.8711V50.4375C400.77 54.7969 402.75 57.6797 406.711 59.0859L413.812 53.5664L414.867 55.043ZM400.77 36.6562L413.848 26.9883L409.77 19.2188L405.234 22.4531C402.258 24.5156 400.77 27.6797 400.77 31.9453V36.6562ZM432.973 1.95703C429.504 3.80859 427.219 6.60937 426.117 10.3594C425.742 11.625 425.555 12.9961 425.555 14.4727V60H423.797V14.4727C423.797 9.78516 425.484 5.87109 428.859 2.73047C429.867 1.79297 430.945 1.00781 432.094 0.375L432.973 1.95703ZM447.176 16.793C451.16 19.4414 453.152 22.5586 453.152 26.1445V45.0938C453.152 47.4609 452.555 49.3242 451.359 50.6836C450.844 51.2695 450.164 51.8789 449.32 52.5117L437.824 61.0898L435.926 60.1406V30.8203C435.926 27.1406 437.203 24.3398 439.758 22.418L447.176 16.793ZM440.777 23.8594C438.715 25.4062 437.684 27.7266 437.684 30.8203V59.0508L448.336 51.2812C449.555 50.3906 450.375 49.4531 450.797 48.4688C451.219 47.4609 451.43 46.3359 451.43 45.0938V26.1445C451.43 23.3555 450.012 20.9531 447.176 18.9375L440.777 23.8594ZM461.273 55.957C458.953 55.957 457.559 57.3047 457.09 60H455.297C455.812 56.1328 457.805 54.1992 461.273 54.1992C462.469 54.1992 463.781 54.4688 465.211 55.0078V28.1484C465.211 26.9062 464.895 25.6055 464.262 24.2461C463.629 22.8633 463.172 21.7969 462.891 21.0469C462.586 20.3438 462.434 19.6406 462.434 18.9375C462.434 17.625 462.68 16.5703 463.172 15.7734C463.664 14.9766 464.531 14.0156 465.773 12.8906L466.969 14.2266C465.469 15.5391 464.59 16.6641 464.332 17.6016C464.238 17.9531 464.191 18.3867 464.191 18.9023C464.191 19.6992 464.508 20.7891 465.141 22.1719L465.949 23.8945C466.23 24.4805 466.465 25.1016 466.652 25.7578L477.375 16.8633L479.836 19.7109C482.648 22.9922 484.055 26.2969 484.055 29.625V45.7266C484.055 49.9922 482.695 53.2148 479.977 55.3945L472.98 61.0547L471.188 59.8594C470.109 59.1562 468.703 58.3828 466.969 57.5391V72.4453H465.211V56.8008C463.734 56.2383 462.422 55.957 461.273 55.957ZM466.969 55.6758C468.633 56.4023 469.898 57.0352 470.766 57.5742L472.91 58.875L478.852 54.0586C481.148 52.1836 482.297 49.4062 482.297 45.7266V29.625C482.297 27.75 481.922 26.1445 481.172 24.8086C480.422 23.4727 479.742 22.418 479.133 21.6445L477.164 19.3242L466.969 27.7617V55.6758ZM508.453 55.043L500.754 61.0547C498.199 60.3047 496.195 59.0508 494.742 57.293C493.312 55.5117 492.598 53.2266 492.598 50.4375V31.9453C492.598 29.4844 492.984 27.3867 493.758 25.6523C494.555 23.8945 495.902 22.3477 497.801 21.0117L503.918 16.7578L509.543 27.4102L494.355 38.8711V50.4375C494.355 54.7969 496.336 57.6797 500.297 59.0859L507.398 53.5664L508.453 55.043ZM494.355 36.6562L507.434 26.9883L503.355 19.2188L498.82 22.4531C495.844 24.5156 494.355 27.6797 494.355 31.9453V36.6562ZM526.488 16.8984C528.879 19.6172 530.637 22.4648 531.762 25.4414L530.32 26.5664C529.477 24.0117 528.152 21.6328 526.348 19.4297L519.07 26.9883V60H517.312V26.3906C517.312 23.4609 516.211 21.2344 514.008 19.7109L514.992 18.2344C517.102 19.5938 518.414 21.7266 518.93 24.6328L526.488 16.8984Z" fill="black"/>
</svg>
