<svg width="532" height="73" viewBox="0 0 532 73" fill="none" xmlns="http://www.w3.org/2000/svg">
<path d="M10.7852 16.793C15.543 22.043 17.9219 28.4766 17.9219 36.0938C17.9219 39.8672 17.6055 42.75 16.9727 44.7422C15.7773 48.5391 13.8906 51.5391 11.3125 53.7422L2.59375 61.0898L0.695312 60V14.4375C0.695312 9.75 2.38281 5.83594 5.75781 2.69531C6.76562 1.75781 7.85547 0.972656 9.02734 0.339844L9.87109 1.88672C6.42578 3.78516 4.14062 6.60937 3.01562 10.3594C2.64062 11.625 2.45312 12.9844 2.45312 14.4375V23.6836L10.7852 16.793ZM2.45312 25.9688V58.9102L10.1523 52.582C13.7617 49.6523 15.7305 45.5625 16.0586 40.3125C16.1523 38.8125 16.1992 37.3359 16.1992 35.8828C16.1992 32.6484 15.7422 29.5898 14.8281 26.707C13.9141 23.8008 12.5195 21.293 10.6445 19.1836L2.45312 25.9688ZM32.7578 60.9844C28.4453 56.25 26.2891 51.2344 26.2891 45.9375C26.2891 43.8984 26.4766 40.5703 26.8516 35.9531C27.2266 31.3125 27.4141 27.8789 27.4141 25.6523C27.4141 22.3477 26.0312 19.6055 23.2656 17.4258L24.3203 16.0195C26.9453 18.0352 28.4922 20.3555 28.9609 22.9805C29.1016 23.8242 29.1719 24.8789 29.1719 26.1445C29.1719 27.9492 28.9844 31.1602 28.6094 35.7773C28.2344 40.3945 28.0469 43.5703 28.0469 45.3047C28.0469 50.2734 29.6992 54.6914 33.0039 58.5586L42.918 50.8594V16.8281H44.6758V52.7578C44.6758 55.1016 45.3906 57 46.8203 58.4531C47.2188 58.875 47.6055 59.2031 47.9805 59.4375L46.9961 60.9141C45.2852 59.8828 44.0664 58.1953 43.3398 55.8516C43.082 55.0078 42.9414 54.082 42.918 53.0742L32.7578 60.9844ZM65.1367 16.8984C67.5273 19.6172 69.2852 22.4648 70.4102 25.4414L68.9688 26.5664C68.125 24.0117 66.8008 21.6328 64.9961 19.4297L57.7188 26.9883V60H55.9609V26.3906C55.9609 23.4609 54.8594 21.2344 52.6562 19.7109L53.6406 18.2344C55.75 19.5938 57.0625 21.7266 57.5781 24.6328L65.1367 16.8984ZM94.7383 61.0898C92.1133 59.1445 90.5547 56.7891 90.0625 54.0234L80.7109 61.0898C77.8516 60.5742 75.9062 59.2031 74.875 56.9766C74.5234 56.2266 74.3477 55.3477 74.3477 54.3398C74.3477 54.2695 74.3477 54.2109 74.3477 54.1641V35.4609C74.3477 31.0312 75.9414 27.6094 79.1289 25.1953L90.2734 16.7578L91.5742 17.4609V51.4219C91.5742 53.0156 91.8672 54.4805 92.4531 55.8164C93.0625 57.1523 94.1641 58.4297 95.7578 59.6484L94.7383 61.0898ZM76.1055 54.1641C76.1055 56.7656 77.4648 58.4414 80.1836 59.1914L89.8516 51.9141V19.043L80.3945 26.3906C79.0586 27.4219 78.0039 28.6406 77.2305 30.0469C76.4805 31.4297 76.1055 33.2344 76.1055 35.4609V54.1641ZM121.211 51.3867C121.211 54.668 122.594 57.4102 125.359 59.6133L124.305 61.0195C121.68 59.0039 120.133 56.6836 119.664 54.0586C119.523 53.2148 119.453 52.2305 119.453 51.1055C119.453 49.418 119.641 47.3203 120.016 44.8125C120.391 42.2812 120.578 40.3828 120.578 39.1172C120.578 36.75 119.852 34.4648 118.398 32.2617C116.969 30.0586 114.988 28.0781 112.457 26.3203L105.004 32.2266V60H103.246V14.4375C103.246 9.75 104.934 5.83594 108.309 2.69531C109.316 1.75781 110.406 0.972656 111.578 0.339844L112.422 1.88672C109 3.78516 106.727 6.60937 105.602 10.3594C105.227 11.625 105.027 12.9844 105.004 14.4375V29.9766L121.809 16.793L122.793 18.1992L114.004 25.0898C116.98 27.7148 118.938 29.7539 119.875 31.207C121.516 33.7852 122.336 36.3984 122.336 39.0469C122.336 40.125 122.148 42.0117 121.773 44.707C121.398 47.4023 121.211 49.6289 121.211 51.3867ZM168.461 51.3867C168.461 54.668 169.844 57.4102 172.609 59.6133L171.555 61.0195C168.93 59.0039 167.383 56.6836 166.914 54.0586C166.773 53.2148 166.703 52.2305 166.703 51.1055C166.703 49.418 166.891 47.3203 167.266 44.8125C167.641 42.2812 167.828 40.3828 167.828 39.1172C167.828 36.75 167.102 34.4648 165.648 32.2617C164.219 30.0586 162.238 28.0781 159.707 26.3203L152.254 32.2266V60H150.496V14.4375C150.496 9.75 152.184 5.83594 155.559 2.69531C156.566 1.75781 157.656 0.972656 158.828 0.339844L159.672 1.88672C156.25 3.78516 153.977 6.60937 152.852 10.3594C152.477 11.625 152.277 12.9844 152.254 14.4375V29.9766L169.059 16.793L170.043 18.1992L161.254 25.0898C164.23 27.7148 166.188 29.7539 167.125 31.207C168.766 33.7852 169.586 36.3984 169.586 39.0469C169.586 40.125 169.398 42.0117 169.023 44.707C168.648 47.4023 168.461 49.6289 168.461 51.3867ZM185.898 60.9844C181.586 56.25 179.43 51.2344 179.43 45.9375C179.43 43.8984 179.617 40.5703 179.992 35.9531C180.367 31.3125 180.555 27.8789 180.555 25.6523C180.555 22.3477 179.172 19.6055 176.406 17.4258L177.461 16.0195C180.086 18.0352 181.633 20.3555 182.102 22.9805C182.242 23.8242 182.312 24.8789 182.312 26.1445C182.312 27.9492 182.125 31.1602 181.75 35.7773C181.375 40.3945 181.188 43.5703 181.188 45.3047C181.188 50.2734 182.84 54.6914 186.145 58.5586L196.059 50.8594V16.8281H197.816V52.7578C197.816 55.1016 198.531 57 199.961 58.4531C200.359 58.875 200.746 59.2031 201.121 59.4375L200.137 60.9141C198.426 59.8828 197.207 58.1953 196.48 55.8516C196.223 55.0078 196.082 54.082 196.059 53.0742L185.898 60.9844ZM209.559 50.4375C209.559 54.7969 211.539 57.6797 215.5 59.0859L222.602 53.5664L223.656 55.043L215.957 61.0547C213.402 60.3047 211.398 59.0508 209.945 57.293C208.516 55.5117 207.801 53.2266 207.801 50.4375V31.9453C207.801 29.4844 208.188 27.3867 208.961 25.6523C209.758 23.8945 211.105 22.3477 213.004 21.0117L219.121 16.7578L224.605 27.1641L223.34 27.9375L218.559 19.2188L214.023 22.4531C211.047 24.5156 209.559 27.6797 209.559 31.9453V50.4375ZM238.07 60.9844C233.758 56.25 231.602 51.2344 231.602 45.9375C231.602 43.8984 231.789 40.5703 232.164 35.9531C232.539 31.3125 232.727 27.8789 232.727 25.6523C232.727 22.3477 231.344 19.6055 228.578 17.4258L229.633 16.0195C232.258 18.0352 233.805 20.3555 234.273 22.9805C234.414 23.8242 234.484 24.8789 234.484 26.1445C234.484 27.9492 234.297 31.1602 233.922 35.7773C233.547 40.3945 233.359 43.5703 233.359 45.3047C233.359 50.2734 235.012 54.6914 238.316 58.5586L248.23 50.8594V16.8281H249.988V52.7578C249.988 55.1016 250.703 57 252.133 58.4531C252.531 58.875 252.918 59.2031 253.293 59.4375L252.309 60.9141C250.598 59.8828 249.379 58.1953 248.652 55.8516C248.395 55.0078 248.254 54.082 248.23 53.0742L238.07 60.9844ZM279.344 51.3867C279.344 54.668 280.727 57.4102 283.492 59.6133L282.438 61.0195C279.812 59.0039 278.266 56.6836 277.797 54.0586C277.656 53.2148 277.586 52.2305 277.586 51.1055C277.586 49.418 277.773 47.3203 278.148 44.8125C278.523 42.2812 278.711 40.3828 278.711 39.1172C278.711 36.75 277.984 34.4648 276.531 32.2617C275.102 30.0586 273.121 28.0781 270.59 26.3203L263.137 32.2266V60H261.379V14.4375C261.379 9.75 263.066 5.83594 266.441 2.69531C267.449 1.75781 268.539 0.972656 269.711 0.339844L270.555 1.88672C267.133 3.78516 264.859 6.60937 263.734 10.3594C263.359 11.625 263.16 12.9844 263.137 14.4375V29.9766L279.941 16.793L280.926 18.1992L272.137 25.0898C275.113 27.7148 277.07 29.7539 278.008 31.207C279.648 33.7852 280.469 36.3984 280.469 39.0469C280.469 40.125 280.281 42.0117 279.906 44.707C279.531 47.4023 279.344 49.6289 279.344 51.3867ZM289.188 55.957C286.867 55.957 285.473 57.3047 285.004 60H283.211C283.727 56.1328 285.719 54.1992 289.188 54.1992C290.383 54.1992 291.695 54.4688 293.125 55.0078V28.1484C293.125 26.9062 292.809 25.6055 292.176 24.2461C291.543 22.8633 291.086 21.7969 290.805 21.0469C290.5 20.3438 290.348 19.6406 290.348 18.9375C290.348 17.625 290.594 16.5703 291.086 15.7734C291.578 14.9766 292.445 14.0156 293.688 12.8906L294.883 14.2266C293.383 15.5391 292.504 16.6641 292.246 17.6016C292.152 17.9531 292.105 18.3867 292.105 18.9023C292.105 19.6992 292.422 20.7891 293.055 22.1719L293.863 23.8945C294.145 24.4805 294.379 25.1016 294.566 25.7578L305.289 16.8633L307.75 19.7109C310.562 22.9922 311.969 26.2969 311.969 29.625V45.7266C311.969 49.9922 310.609 53.2148 307.891 55.3945L300.895 61.0547L299.102 59.8594C298.023 59.1562 296.617 58.3828 294.883 57.5391V72.4453H293.125V56.8008C291.648 56.2383 290.336 55.957 289.188 55.957ZM294.883 55.6758C296.547 56.4023 297.812 57.0352 298.68 57.5742L300.824 58.875L306.766 54.0586C309.062 52.1836 310.211 49.4062 310.211 45.7266V29.625C310.211 27.75 309.836 26.1445 309.086 24.8086C308.336 23.4727 307.656 22.418 307.047 21.6445L305.078 19.3242L294.883 27.7617V55.6758ZM340.762 61.0898C338.137 59.1445 336.578 56.7891 336.086 54.0234L326.734 61.0898C323.875 60.5742 321.93 59.2031 320.898 56.9766C320.547 56.2266 320.371 55.3477 320.371 54.3398C320.371 54.2695 320.371 54.2109 320.371 54.1641V35.4609C320.371 31.0312 321.965 27.6094 325.152 25.1953L336.297 16.7578L337.598 17.4609V51.4219C337.598 53.0156 337.891 54.4805 338.477 55.8164C339.086 57.1523 340.188 58.4297 341.781 59.6484L340.762 61.0898ZM322.129 54.1641C322.129 56.7656 323.488 58.4414 326.207 59.1914L335.875 51.9141V19.043L326.418 26.3906C325.082 27.4219 324.027 28.6406 323.254 30.0469C322.504 31.4297 322.129 33.2344 322.129 35.4609V54.1641ZM358.34 16.8984C360.73 19.6172 362.488 22.4648 363.613 25.4414L362.172 26.5664C361.328 24.0117 360.004 21.6328 358.199 19.4297L350.922 26.9883V60H349.164V26.3906C349.164 23.4609 348.062 21.2344 345.859 19.7109L346.844 18.2344C348.953 19.5938 350.266 21.7266 350.781 24.6328L358.34 16.8984ZM369.66 24.9492C369.66 22.0195 368.559 19.793 366.355 18.2695L367.34 16.793C369.121 17.9883 370.352 19.7109 371.031 21.9609C371.289 22.8047 371.418 23.7656 371.418 24.8438L381.578 16.8984C383.992 19.5938 385.551 22.3008 386.254 25.0195L396.59 16.8984C399.566 20.1797 401.547 23.7656 402.531 27.6562C402.883 29.0156 403.059 30.4102 403.059 31.8398C403.059 33.7383 402.871 36.9727 402.496 41.543C402.121 46.1133 401.934 49.3242 401.934 51.1758C401.934 54.457 403.316 57.1992 406.082 59.4023L405.027 60.8086C402.426 58.793 400.891 56.4727 400.422 53.8477C400.258 52.8398 400.176 51.6797 400.176 50.3672C400.176 49.5469 400.211 48.6562 400.281 47.6953C400.445 45.2578 400.656 42.4922 400.914 39.3984C401.172 36.2812 401.301 33.9375 401.301 32.3672C401.301 27.6797 399.648 23.332 396.344 19.3242L386.676 26.918C386.84 28.1836 386.922 29.332 386.922 30.3633V60H385.164V30.3633C385.164 26.0273 383.887 22.3477 381.332 19.3242L371.418 27.0586V60H369.66V24.9492ZM432.66 61.0898C430.035 59.1445 428.477 56.7891 427.984 54.0234L418.633 61.0898C415.773 60.5742 413.828 59.2031 412.797 56.9766C412.445 56.2266 412.27 55.3477 412.27 54.3398C412.27 54.2695 412.27 54.2109 412.27 54.1641V35.4609C412.27 31.0312 413.863 27.6094 417.051 25.1953L428.195 16.7578L429.496 17.4609V51.4219C429.496 53.0156 429.789 54.4805 430.375 55.8164C430.984 57.1523 432.086 58.4297 433.68 59.6484L432.66 61.0898ZM414.027 54.1641C414.027 56.7656 415.387 58.4414 418.105 59.1914L427.773 51.9141V19.043L418.316 26.3906C416.98 27.4219 415.926 28.6406 415.152 30.0469C414.402 31.4297 414.027 33.2344 414.027 35.4609V54.1641ZM459.133 51.3867C459.133 54.668 460.516 57.4102 463.281 59.6133L462.227 61.0195C459.602 59.0039 458.055 56.6836 457.586 54.0586C457.445 53.2148 457.375 52.2305 457.375 51.1055C457.375 49.418 457.562 47.3203 457.938 44.8125C458.312 42.2812 458.5 40.3828 458.5 39.1172C458.5 36.75 457.773 34.4648 456.32 32.2617C454.891 30.0586 452.91 28.0781 450.379 26.3203L442.926 32.2266V60H441.168V14.4375C441.168 9.75 442.855 5.83594 446.23 2.69531C447.238 1.75781 448.328 0.972656 449.5 0.339844L450.344 1.88672C446.922 3.78516 444.648 6.60937 443.523 10.3594C443.148 11.625 442.949 12.9844 442.926 14.4375V29.9766L459.73 16.793L460.715 18.1992L451.926 25.0898C454.902 27.7148 456.859 29.7539 457.797 31.207C459.438 33.7852 460.258 36.3984 460.258 39.0469C460.258 40.125 460.07 42.0117 459.695 44.707C459.32 47.4023 459.133 49.6289 459.133 51.3867ZM476.465 21.8555L469.645 28.3945L476.746 36.9727C477.004 36.8086 477.332 36.5742 477.73 36.2695L486.273 29.8359C487.445 30.7031 488.512 31.875 489.473 33.3516C490.434 34.8047 491.266 36.3164 491.969 37.8867C492.672 39.4336 493.023 41.1914 493.023 43.1602C493.023 47.0039 491.723 50.5781 489.121 53.8828C486.52 57.1641 483.121 59.5664 478.926 61.0898C478.504 60.3633 477.977 59.625 477.344 58.875L473.125 54.2344C470.453 51.3281 469.117 48.5977 469.117 46.043C469.117 44.3555 470.078 42.5977 472 40.7695L473.09 42.0703C471.59 43.5234 470.84 44.8594 470.84 46.0781C470.84 47.2734 471.156 48.4336 471.789 49.5586C472.445 50.6836 473.23 51.7734 474.145 52.8281C475.082 53.8594 476.055 54.8789 477.062 55.8867C478.094 56.8945 478.973 57.9258 479.699 58.9805C483.238 57.457 486.051 55.2422 488.137 52.3359C490.223 49.4297 491.266 46.418 491.266 43.3008C491.266 40.1602 490.094 36.9844 487.75 33.7734C487.188 33 486.695 32.4023 486.273 31.9805L476.465 39.2578L467.254 28.3242L476.605 19.1836C477.988 21.1289 479.125 22.418 480.016 23.0508C481.492 24.0586 482.922 24.5625 484.305 24.5625C486.789 24.5625 488.781 23.8125 490.281 22.3125C491.781 20.8125 492.531 18.9727 492.531 16.793C492.531 14.6367 491.77 12.8086 490.246 11.3086C488.746 9.78516 486.895 9.02344 484.691 9.02344C482.512 9.02344 480.684 9.78516 479.207 11.3086C477.73 12.832 476.98 14.6602 476.957 16.793H475.234C475.234 14.2383 476.16 12.0234 478.012 10.1484C479.887 8.25 482.125 7.30078 484.727 7.30078C487.305 7.27734 489.543 8.20313 491.441 10.0781C493.34 11.9531 494.301 14.2148 494.324 16.8633C494.324 19.4648 493.387 21.7031 491.512 23.5781C489.637 25.4531 487.27 26.3906 484.41 26.3906C481.551 26.3906 478.902 24.8789 476.465 21.8555ZM506.066 61.0898C502.785 58.6289 501.145 55.4062 501.145 51.4219V17.8125H502.902V51.4219C502.902 53.0156 503.195 54.4805 503.781 55.8164C504.391 57.1523 505.492 58.4297 507.086 59.6484L506.066 61.0898ZM502.832 12.8555L501.18 12.3281L503.852 5.92969L505.996 6.80859L502.832 12.8555ZM517.562 16.3359C523.234 18.7734 526.07 22.5703 526.07 27.7266C526.07 31.125 523.691 35.4727 518.934 40.7695C519.66 41.0273 520.305 41.3086 520.867 41.6133C523.703 38.8711 526.926 36.3516 530.535 34.0547L531.449 35.5312C527.746 37.9219 524.723 40.2305 522.379 42.457C527.184 45.5508 529.586 50.4961 529.586 57.293C529.586 60.832 528.613 64.2305 526.668 67.4883C524.723 70.7461 522.344 72.375 519.531 72.375C517.258 72.375 515.359 71.3438 513.836 69.2812C512.312 67.2188 511.551 64.418 511.551 60.8789C511.551 54.5977 514.188 48.6562 519.461 43.0547C518.359 42.4922 517.105 42.0352 515.699 41.6836C520.129 37.043 522.836 33.2461 523.82 30.293C524.148 29.2383 524.312 28.1719 524.312 27.0938C524.312 25.0781 523.68 23.332 522.414 21.8555C521.148 20.3555 519.602 19.1953 517.773 18.375L512.043 22.9453L510.988 21.5391L517.562 16.3359ZM521.008 43.8633C515.875 49.2305 513.309 54.9023 513.309 60.8789C513.332 63.832 513.941 66.1875 515.137 67.9453C516.332 69.7266 517.668 70.6172 519.145 70.6172C521.699 70.6172 523.785 69.1875 525.402 66.3281C527.02 63.4922 527.828 60.5391 527.828 57.4688C527.828 51.1406 525.555 46.6055 521.008 43.8633Z" fill="black"/>
</svg>
