<svg width="52" height="67" viewBox="0 0 52 67" fill="none" xmlns="http://www.w3.org/2000/svg">
<path fill-rule="evenodd" clip-rule="evenodd" d="M1.58444 65.6994C1.60381 65.4827 1.62326 65.1608 1.62326 64.8783V61.0359H2.46742V63.0327H2.48679C2.78755 62.678 3.33095 62.4481 4.08767 62.4481C5.25196 62.4481 6.07668 63.1049 6.06695 64.0705C6.06695 65.2068 5.00939 65.7717 3.96149 65.7717C3.28233 65.7717 2.73901 65.5943 2.3897 65.174H2.36061L2.32179 65.6995L1.58444 65.6994ZM2.46742 64.4252C2.46742 64.4975 2.48679 64.5697 2.50624 64.6353C2.67117 65.036 3.16603 65.3119 3.78699 65.3119C4.67962 65.3119 5.21322 64.8193 5.21322 64.0901C5.21322 63.453 4.72809 62.9078 3.81601 62.9078C3.23387 62.9078 2.69054 63.1771 2.51589 63.6172C2.51304 63.6269 2.50999 63.6368 2.50685 63.647C2.4886 63.7064 2.46742 63.7752 2.46742 63.8537V64.4252Z" fill="#F15A29"/>
<path d="M10.6854 64.8324C10.6854 65.1608 10.6952 65.4498 10.7243 65.6994H9.96746L9.91899 65.1805H9.89962C9.67642 65.4367 9.18164 65.7716 8.34721 65.7716C7.60978 65.7716 6.72688 65.4958 6.72688 64.3791V62.5203H7.58069V64.2806C7.58069 64.8849 7.85235 65.2921 8.62859 65.2921C9.20101 65.2921 9.59886 65.0228 9.75406 64.7666C9.80253 64.6812 9.8317 64.5762 9.8317 64.4711V62.5203H10.6855L10.6854 64.8324Z" fill="#F15A29"/>
<path d="M11.6753 62.5204C11.7045 62.8159 11.7141 63.1378 11.7141 63.5121V65.6995H12.5583V64.0048C12.5583 63.9063 12.5777 63.8143 12.5971 63.7355C12.7135 63.302 13.1404 62.9933 13.7419 62.9933C13.8583 62.9933 13.9457 62.9998 14.033 63.013V62.4678C13.9553 62.4546 13.8874 62.4481 13.7904 62.4481C13.218 62.4481 12.7038 62.7174 12.4903 63.1443H12.4515L12.4224 62.5204H11.6753Z" fill="#F15A29"/>
<path fill-rule="evenodd" clip-rule="evenodd" d="M17.0507 65.6994L16.9827 65.2987H16.9537C16.6916 65.5483 16.1871 65.7717 15.5177 65.7717C14.5669 65.7717 14.0818 65.3184 14.0818 64.8586C14.0818 64.0901 15.0908 63.6698 16.9052 63.6763V63.6106C16.9052 63.3479 16.7985 62.875 15.8379 62.875C15.4013 62.875 14.9453 62.967 14.6154 63.1115L14.4214 62.7305C14.8095 62.5597 15.3722 62.4481 15.9641 62.4481C17.4 62.4481 17.7493 63.1115 17.7493 63.7486V64.9375C17.7493 65.2134 17.7687 65.4827 17.8269 65.6994H17.0507ZM16.9245 64.077C15.993 64.0639 14.9355 64.1756 14.9355 64.793C14.9355 65.1674 15.3042 65.3447 15.7408 65.3447C16.3521 65.3447 16.7402 65.082 16.8759 64.8127C16.905 64.7535 16.9245 64.6879 16.9245 64.6287V64.077Z" fill="#F15A29"/>
<path d="M19.6025 63.9785H19.5831V61.0359H18.739V65.6995H19.5831V64.504L20.0197 64.1756L21.6401 65.6995H22.6782L20.6116 63.8275L22.4259 62.5204H21.3975L20.0197 63.6173C19.8839 63.729 19.719 63.8668 19.6025 63.9785Z" fill="#F15A29"/>
<path d="M23.9105 63.9785H23.9299C24.0463 63.8668 24.2113 63.729 24.3471 63.6173L25.7249 62.5204H26.7533L24.939 63.8275L27.0055 65.6995H25.9674L24.3471 64.1756L23.9105 64.504V65.6995H23.0664V61.0359H23.9105V63.9785Z" fill="#F15A29"/>
<path fill-rule="evenodd" clip-rule="evenodd" d="M27.355 62.5204C27.3744 62.8225 27.3938 63.1509 27.3938 63.5582V67H28.238V65.2726H28.2573C28.5386 65.5879 29.082 65.7718 29.7029 65.7718C30.809 65.7718 31.8375 65.2069 31.8375 64.064C31.8375 63.0984 30.9837 62.4482 29.8485 62.4482C29.082 62.4482 28.529 62.678 28.1797 63.0656H28.1603L28.1215 62.5204H27.355ZM28.2767 64.6419C28.2573 64.5697 28.238 64.4909 28.238 64.4055L28.2379 63.8602C28.2379 63.7815 28.267 63.696 28.2961 63.6238C28.461 63.1902 29.0044 62.9079 29.5866 62.9079C30.4889 62.9079 30.9837 63.4531 30.9837 64.0901C30.9837 64.8193 30.4598 65.3184 29.5575 65.3184C28.9462 65.3184 28.432 65.0426 28.2767 64.6419Z" fill="#F15A29"/>
<path fill-rule="evenodd" clip-rule="evenodd" d="M42.0642 64.0835C42.0642 65.2593 40.8611 65.7716 39.7259 65.7716C38.4549 65.7716 37.475 65.1411 37.475 64.1361C37.475 63.072 38.5034 62.448 39.8036 62.448C41.1522 62.4481 42.0642 63.1115 42.0642 64.0835ZM38.3385 64.1164C38.3385 64.8126 38.9304 65.3381 39.7647 65.3381C40.5798 65.3381 41.191 64.8192 41.191 64.1033C41.191 63.5646 40.7932 62.8815 39.7841 62.8815C38.7751 62.8816 38.3385 63.5121 38.3385 64.1164Z" fill="black"/>
<path d="M35.9128 65.765C36.5435 65.765 37.0382 65.66 37.2614 65.5811L37.1159 65.1476C36.8734 65.2198 36.5531 65.3053 36.0681 65.3053C35.1366 65.3053 34.438 64.852 34.438 64.1164C34.438 63.453 35.0201 62.9144 36.0972 62.9144C36.5628 62.9144 36.883 62.9866 37.0868 63.0655L37.2808 62.6188C37.048 62.54 36.6017 62.4545 36.0972 62.4545C34.5641 62.4545 33.5745 63.164 33.5745 64.1427C33.5745 65.1148 34.4963 65.765 35.9128 65.765Z" fill="black"/>
<path d="M32.6722 64.944C32.3327 64.944 32.09 65.1148 32.09 65.3578C32.09 65.5942 32.3229 65.7716 32.6625 65.7716C33.0215 65.7716 33.2447 65.5942 33.2447 65.3578C33.2447 65.1148 33.0118 64.944 32.6722 64.944Z" fill="black"/>
<path d="M42.7146 62.5203C42.7437 62.783 42.7534 63.0523 42.7534 63.3807L42.7533 65.6994H43.5878V63.7814C43.5878 63.6829 43.6071 63.5844 43.6557 63.499C43.7915 63.21 44.1796 62.921 44.7132 62.921C45.3633 62.921 45.6931 63.2888 45.6931 63.7946V65.6994H46.5276V63.7354C46.5276 63.6304 46.5567 63.5253 46.5955 63.4465C46.741 63.164 47.1194 62.921 47.6046 62.921C48.2935 62.921 48.6233 63.2888 48.6233 63.8997V65.6994H49.4577V63.8274C49.4577 62.7239 48.536 62.4481 47.9151 62.4481C47.4688 62.4481 47.1583 62.5268 46.877 62.6713C46.6829 62.7699 46.4986 62.9078 46.353 63.0852H46.3336C46.1298 62.7108 45.6447 62.4481 45.0043 62.4481C44.2282 62.4481 43.7916 62.7305 43.5296 63.0326H43.5005L43.4617 62.5203H42.7146Z" fill="black"/>
<path fill-rule="evenodd" clip-rule="evenodd" d="M29.8108 58.9921H44.2607L44.261 58.9924L44.2613 58.9921H44.2887L44.2752 58.9749L50.488 51.3025L43.4309 42.8874L51.8375 29.9748C53.175 21.8247 45.8181 16.0468 45.8181 16.0468C43.5627 14.4998 41.6865 14.0594 40.2046 14.1347L38.1268 13.9276C36.3168 13.7472 34.6145 13.6558 33.0674 13.6558C31.0813 13.6558 29.4996 13.8027 28.2484 14.0177V8.23174L14.5735 0H0V58.9921H14.5053V59.0088L14.5426 58.9921H14.5735V58.9783L25.7457 53.984L29.8108 58.9921ZM41.1822 57.7289H30.9145L12.7075 35.2982V57.7289H1.86598V1.26323H12.7075V34.1591L25.4738 16.3616C25.725 16.1654 27.5408 14.919 33.0673 14.919C33.93 14.919 34.8468 14.9494 35.8085 15.01C35.2768 15.438 35.0014 15.7966 34.983 15.821L21.0338 34.0166L36.0044 51.1414L41.1822 57.7289ZM38.7711 38.899L31.8247 30.3386L36.9994 23.4508C37.3807 23.3659 37.7449 23.318 38.0926 23.3029C41.918 23.1369 43.754 26.9336 44.4611 28.9703C44.7182 29.711 44.8261 30.2189 44.8261 30.2189L38.7711 38.899Z" fill="black"/>
</svg>
