<?xml version="1.0" encoding="utf-8"?>
<!-- Generator: Adobe Illustrator 16.0.0, SVG Export Plug-In . SVG Version: 6.00 Build 0)  -->
<!DOCTYPE svg PUBLIC "-//W3C//DTD SVG 1.1//EN" "http://www.w3.org/Graphics/SVG/1.1/DTD/svg11.dtd">
<svg version="1.1" id="Layer_1" xmlns="http://www.w3.org/2000/svg" xmlns:xlink="http://www.w3.org/1999/xlink" x="0px" y="0px"
	 width="1524px" height="1530px" viewBox="0 0 1524 1530" enable-background="new 0 0 1524 1530" xml:space="preserve">
<g>
	<g>
		<path fill="#FFFFFF" d="M923.809,451.645c0,0,9.564-18.683,28.243-29.847C812.091,401.188,779.546,450,779.546,450
			L636.538,744.496v-36.681V172.686v-17.332H471.883v1104.922h164.654V865.97l216.671,394.306h160.32l-76.672-144.091
			l-190.703-322.23L923.809,451.645z"/>
	</g>
	<g>
		<path d="M1033.655,1272.365H846.06L648.627,913.073v359.292H459.794v-1129.1h188.833v548.662L769.03,443.98l0.457-0.683
			c2.636-3.958,28.371-38.663,118.77-38.663c20.046,0,42.103,1.75,65.556,5.204l33.548,4.939l-29.107,17.397
			c-15.272,9.129-23.604,24.824-23.685,24.98L759.974,793.569L947.4,1110.264l0.129,0.242L1033.655,1272.365z M860.361,1248.187
			h133.042l-67.09-126.083L732.335,794.338l180.743-348.262c0.238-0.467,3.807-7.33,10.696-15.522
			c-12.46-1.159-24.34-1.742-35.518-1.742c-71.609,0-95.136,23.857-98.391,27.612L624.449,797.066V167.443H483.972v1080.744h140.477
			v-429.32L860.361,1248.187z"/>
	</g>
</g>
<g>
	<g>
		<path d="M791.152,426.478l34.664-8.666V300.82L648.627,143.265l-8.691,580.026C752.602,456.81,791.152,426.478,791.152,426.478z"
			/>
	</g>
</g>
<g>
	<path d="M1053.471,450.399c-43.65-44.225-76.337-41.202-97.415-28.602c4.493,0.662,2.092,1.395,6.81,2.204L760.213,789.977
		l180.648,326.208l92.435,156.187l80.684-147.185l-91.44-161.063l108.926-247.145
		C1148.797,560.988,1053.471,450.399,1053.471,450.399z M962.162,887.786l-90.007-163.844l67.05-131.832
		c79.048-25.999,101.413,129.54,101.413,129.54L962.162,887.786z"/>
</g>
<g>
	<g>
		<path d="M965.868,424.001c-4.718-0.809-9.323-1.542-13.816-2.204c-18.679,11.164-28.243,29.847-28.243,29.847L746.155,793.954
			l190.703,322.23L762.214,787.976L965.868,424.001z"/>
	</g>
</g>
<g>
	<g>
		<path fill="#FFFFFF" d="M939.205,592.11l-66.049,131.832l89.006,163.844l78.456-166.136
			C1040.618,721.65,1018.253,566.111,939.205,592.11z"/>
	</g>
</g>
<g>
	<g>
		<polygon points="647.743,1272.685 800.8,1171.617 647.743,910.192 		"/>
	</g>
</g>
<g>
	<path fill="#F15A29" d="M480.324,1400.742c0.251-4.148,0.503-10.309,0.503-15.715v-73.544h10.938v38.218h0.251
		c3.897-6.789,10.938-11.188,20.743-11.188c15.086,0,25.772,12.571,25.646,31.052c0,21.749-13.703,32.561-27.281,32.561
		c-8.8,0-15.84-3.395-20.366-11.44h-0.377l-0.503,10.058H480.324z M491.765,1376.354c0,1.383,0.251,2.766,0.503,4.022
		c2.137,7.669,8.549,12.949,16.595,12.949c11.566,0,18.48-9.429,18.48-23.384c0-12.194-6.286-22.629-18.104-22.629
		c-7.543,0-14.583,5.154-16.846,13.577c-0.251,1.258-0.628,2.766-0.628,4.526V1376.354z"/>
	<path fill="#F15A29" d="M598.248,1384.147c0,6.286,0.126,11.817,0.503,16.595h-9.806l-0.628-9.932h-0.251
		c-2.892,4.903-9.303,11.314-20.115,11.314c-9.555,0-20.995-5.28-20.995-26.652v-35.577h11.063v33.691
		c0,11.566,3.52,19.36,13.578,19.36c7.417,0,12.572-5.154,14.583-10.057c0.628-1.635,1.006-3.646,1.006-5.657v-37.338h11.063
		V1384.147z"/>
	<path fill="#F15A29" d="M611.577,1358.878c0-7.165-0.125-13.325-0.503-18.982h9.68l0.377,11.942h0.503
		c2.766-8.171,9.429-13.325,16.846-13.325c1.257,0,2.137,0.125,3.143,0.377v10.435c-1.131-0.252-2.263-0.378-3.771-0.378
		c-7.794,0-13.326,5.909-14.834,14.206c-0.251,1.509-0.503,3.27-0.503,5.155v32.435h-10.938V1358.878z"/>
	<path fill="#F15A29" d="M680.724,1400.742l-0.88-7.669h-0.377c-3.395,4.777-9.932,9.052-18.606,9.052
		c-12.32,0-18.606-8.675-18.606-17.475c0-14.709,13.075-22.755,36.584-22.629v-1.258c0-5.028-1.383-14.08-13.829-14.08
		c-5.657,0-11.566,1.761-15.84,4.526l-2.514-7.292c5.029-3.269,12.32-5.405,19.989-5.405c18.606,0,23.132,12.697,23.132,24.892
		v22.755c0,5.28,0.251,10.435,1.005,14.583H680.724z M679.089,1369.69c-12.069-0.252-25.772,1.886-25.772,13.703
		c0,7.166,4.777,10.56,10.435,10.56c7.92,0,12.949-5.028,14.708-10.183c0.377-1.132,0.629-2.389,0.629-3.521V1369.69z"/>
	<path fill="#F15A29" d="M713.538,1367.805h0.251c1.509-2.138,3.646-4.777,5.406-6.915l17.852-20.994h13.326l-23.509,25.018
		l26.778,35.829h-13.452l-20.995-29.166l-5.657,6.285v22.881H702.6v-89.259h10.938V1367.805z"/>
	<path fill="#F15A29" d="M769.609,1367.805h0.251c1.509-2.138,3.646-4.777,5.406-6.915l17.852-20.994h13.326l-23.509,25.018
		l26.777,35.829h-13.452l-20.994-29.166l-5.657,6.285v22.881h-10.938v-89.259h10.938V1367.805z"/>
	<path fill="#F15A29" d="M814.743,1359.759c0-7.795-0.252-14.081-0.503-19.863h9.932l0.503,10.435h0.251
		c4.526-7.418,11.691-11.817,21.623-11.817c14.709,0,25.772,12.445,25.772,30.926c0,21.875-13.326,32.687-27.658,32.687
		c-8.046,0-15.086-3.52-18.731-9.555h-0.251v33.063h-10.938V1359.759z M825.681,1375.976c0,1.635,0.251,3.144,0.502,4.526
		c2.012,7.669,8.675,12.948,16.595,12.948c11.692,0,18.48-9.554,18.48-23.509c0-12.194-6.411-22.629-18.103-22.629
		c-7.543,0-14.584,5.405-16.721,13.703c-0.377,1.383-0.754,3.018-0.754,4.525V1375.976z"/>
	<path d="M875.593,1394.205c0-4.651,3.144-7.92,7.543-7.92c4.4,0,7.418,3.269,7.418,7.92c0,4.525-2.892,7.92-7.543,7.92
		C878.61,1402.125,875.593,1398.73,875.593,1394.205z"/>
	<path d="M942.6,1398.479c-2.892,1.509-9.303,3.52-17.475,3.52c-18.354,0-30.298-12.445-30.298-31.052
		c0-18.731,12.823-32.31,32.687-32.31c6.537,0,12.32,1.635,15.337,3.144l-2.514,8.549c-2.641-1.509-6.789-2.892-12.823-2.892
		c-13.955,0-21.498,10.309-21.498,23.006c0,14.08,9.052,22.755,21.121,22.755c6.285,0,10.435-1.635,13.577-3.018L942.6,1398.479z"/>
	<path d="M1004.831,1369.815c0,22.504-15.589,32.31-30.298,32.31c-16.469,0-29.166-12.068-29.166-31.304
		c0-20.366,13.326-32.309,30.172-32.309C993.014,1338.513,1004.831,1351.21,1004.831,1369.815z M956.556,1370.444
		c0,13.326,7.669,23.384,18.48,23.384c10.561,0,18.48-9.932,18.48-23.635c0-10.31-5.154-23.384-18.229-23.384
		C962.213,1346.81,956.556,1358.878,956.556,1370.444z"/>
	<path d="M1013.761,1356.364c0-6.286-0.126-11.44-0.503-16.469h9.68l0.503,9.806h0.377c3.395-5.783,9.052-11.188,19.109-11.188
		c8.297,0,14.583,5.028,17.224,12.194h0.251c1.886-3.395,4.274-6.035,6.789-7.921c3.646-2.766,7.669-4.273,13.451-4.273
		c8.046,0,19.989,5.279,19.989,26.4v35.829h-10.812v-34.446c0-11.692-4.274-18.732-13.2-18.732c-6.286,0-11.189,4.652-13.075,10.058
		c-0.503,1.509-0.88,3.521-0.88,5.531v37.59h-10.812v-36.458c0-9.681-4.274-16.721-12.697-16.721
		c-6.914,0-11.943,5.532-13.703,11.063c-0.629,1.635-0.88,3.521-0.88,5.406v36.709h-10.812V1356.364z"/>
</g>
</svg>
